<?xml version="1.0" encoding="UTF-8" standalone="no"?>
<!DOCTYPE svg PUBLIC "-//W3C//DTD SVG 1.1//EN" "http://www.w3.org/Graphics/SVG/1.1/DTD/svg11.dtd">
<svg xmlns="http://www.w3.org/2000/svg" xmlns:xl="http://www.w3.org/1999/xlink" version="1.1" viewBox="33.04721 25.356177 245.7166 76.8467" width="245.7166pt" height="76.8467pt" xmlns:dc="http://purl.org/dc/elements/1.1/">
  <metadata> Produced by OmniGraffle 7.5 
    <dc:date>2018-09-03 06:22:16 +0000</dc:date>
  </metadata>
  <defs/>
  <g stroke="none" stroke-opacity="1" stroke-dasharray="none" fill="none" fill-opacity="1">
    <title>Canvas 1</title>
    <rect fill="white" width="245.7166" height="76.8467"/>
    <g>
      <title>Layer 1</title>
      <path d="M 58.06281 55.71418 L 64.40381 55.71418 L 64.40381 42.649177 L 58.06281 42.649177 Z M 54.02781 38.805177 L 68.24581 38.805177 L 68.24581 59.55718 L 54.02781 59.55718 Z M 53.06681 32.849177 L 53.06681 28.622177 L 81.12081 28.622177 L 81.12081 32.849177 L 77.27681 32.849177 L 77.27681 63.59218 C 77.40381 68.33018 75.22681 70.70218 70.74481 70.70218 C 68.82281 70.82818 66.25881 70.89318 63.05881 70.89318 C 63.05881 70.38018 62.92981 69.61218 62.67481 68.58818 C 62.54481 67.69018 62.41581 66.92218 62.29081 66.28218 C 63.82781 66.40918 66.00381 66.47518 68.82281 66.47518 C 71.89681 66.72918 73.30581 65.45118 73.04981 62.63118 L 73.04981 32.849177 Z M 36.54281 71.47018 L 36.54281 27.854177 L 50.56881 27.854177 L 50.56881 31.889177 L 46.91881 44.762177 C 49.73481 48.35018 51.14581 52.06318 51.14581 55.90718 C 51.27181 60.64718 49.47981 63.20818 45.76581 63.59218 C 45.38181 63.72118 44.80481 63.78418 44.03681 63.78418 C 43.26781 63.91418 42.69181 63.97718 42.30781 63.97718 C 42.17781 62.56918 41.79381 61.03218 41.15381 59.36618 L 44.22881 59.36618 C 46.27581 59.36618 47.23681 57.95818 47.11081 55.13718 C 46.98181 51.93818 45.57381 48.60518 42.88381 45.147177 L 46.34181 31.889177 L 40.57781 31.889177 L 40.57781 71.47018 Z" fill="#373d41"/>
      <path d="M 108.98081 47.64418 L 121.46981 47.64418 L 121.46981 41.303177 L 108.98081 41.303177 Z M 121.47081 31.696177 L 108.98181 31.696177 L 108.98181 37.844177 L 121.47081 37.844177 Z M 92.26481 47.64418 L 104.56181 47.64418 L 104.56181 41.303177 L 92.26481 41.303177 Z M 92.26481 37.844177 L 104.56181 37.844177 L 104.56181 31.696177 L 92.26481 31.696177 Z M 86.49981 60.32618 L 86.49981 56.48318 L 104.56181 56.48318 L 104.56181 51.29618 L 87.65281 51.29618 L 87.65281 27.854177 L 125.88981 27.854177 L 125.88981 51.29618 L 108.98081 51.29618 L 108.98081 56.48318 L 127.23481 56.48318 L 127.23481 60.32618 L 108.98081 60.32618 L 108.98081 65.70618 L 129.92481 65.70618 L 129.92481 69.16518 L 83.61881 69.16518 L 83.61881 65.70618 L 104.56181 65.70618 L 104.56181 60.32618 Z" fill="#373d41"/>
      <path d="M 137.41881 28.622177 L 174.6948 28.622177 L 174.6948 33.042177 L 137.41881 33.042177 Z M 133.19181 47.45218 L 133.19181 43.033177 L 179.1138 43.033177 L 179.1138 47.45218 L 155.86481 47.45218 C 152.02181 52.83318 147.85781 58.08718 143.37481 63.20818 C 147.98681 63.20818 155.79881 62.95318 166.81681 62.44018 C 165.91881 61.03218 164.44481 59.11018 162.39681 56.67418 C 161.37081 55.39618 160.66781 54.49918 160.28381 53.98518 L 163.93481 51.67918 C 168.0328 56.54918 172.4518 61.79918 177.1928 67.43518 L 172.9648 70.31718 C 172.0678 69.03618 171.1068 67.69018 170.0828 66.28218 C 159.57881 66.53818 150.86881 66.92218 143.95181 67.43518 C 142.79881 67.43518 141.13281 67.56118 138.95581 67.81918 C 138.57181 67.94618 138.24981 68.01218 137.99481 68.01218 L 135.88181 63.59218 C 137.54481 62.56918 139.14781 61.16118 140.68581 59.36618 C 144.26981 55.26718 147.21781 51.29618 149.52381 47.45218 Z" fill="#373d41"/>
      <path d="M 188.3367 44.762477 C 187.0547 43.993477 185.7097 43.162477 184.3017 42.264477 C 187.6317 38.421477 190.2587 33.233477 192.1797 26.700477 L 196.7907 27.660477 C 196.4067 28.559477 195.8937 29.840477 195.2537 31.504477 C 194.8697 32.785477 194.5487 33.684477 194.2937 34.194477 L 204.0927 34.194477 L 204.0927 25.547477 L 208.7037 25.547477 L 208.7037 34.194477 L 225.2287 34.194477 L 225.2287 38.421477 L 208.7037 38.421477 L 208.7037 46.875477 L 228.1107 46.875477 L 228.1107 51.29548 L 213.3157 51.29548 L 213.3157 63.20748 C 213.1867 65.12948 214.2107 66.02448 216.3897 65.89848 L 220.4247 65.89848 C 222.2177 66.02448 223.3697 65.19648 223.8837 63.40048 C 224.0097 62.63148 224.1387 61.09448 224.2677 58.78848 C 224.2677 59.17248 224.3307 58.72548 224.4597 57.44448 L 228.6877 58.98148 C 228.5587 61.28648 228.3027 63.40048 227.9187 65.32148 C 227.0217 68.65148 224.6517 70.25048 220.8097 70.12548 L 214.8527 70.12548 C 210.6257 70.25048 208.5747 68.32948 208.7037 64.36148 L 208.7037 51.29548 L 199.8657 51.29548 L 199.8657 53.02448 C 199.8657 61.60848 194.8037 67.75348 184.6867 71.47048 C 183.9177 70.31748 183.0207 68.90748 181.9957 67.24248 C 190.8347 64.68248 195.2537 59.87848 195.2537 52.83248 L 195.2537 51.29548 L 182.5727 51.29548 L 182.5727 46.875477 L 204.0927 46.875477 L 204.0927 38.421477 L 192.1797 38.421477 C 191.0267 40.727477 189.7447 42.840477 188.3367 44.762477 Z" fill="#373d41"/>
      <path d="M 260.1978 60.90318 L 271.1498 60.90318 L 271.1498 34.194177 L 260.1978 34.194177 L 260.1978 60.90318 M 255.7788 69.54918 L 255.7788 29.967177 L 275.7628 29.967177 L 275.7628 69.35618 L 271.1498 69.35618 L 271.1498 65.13018 L 260.1978 65.13018 L 260.1978 69.54918 L 255.7788 69.54918 M 234.4508 42.649177 C 234.1928 42.522177 233.8088 42.264177 233.2988 41.880177 C 232.2708 41.112177 231.5028 40.601177 230.9928 40.342177 C 233.6828 35.347177 235.5378 30.352177 236.5638 25.356177 L 240.7918 26.124177 C 240.5338 27.151177 240.0868 28.559177 239.4468 30.352177 C 239.3178 30.994177 239.1878 31.441177 239.0618 31.696177 L 252.5128 31.696177 L 252.5128 35.731177 L 245.7878 35.731177 C 245.7878 40.601177 245.7218 44.059177 245.5958 46.107177 L 253.4738 46.107177 L 253.4738 50.14218 L 245.2108 50.14218 C 245.2108 51.42418 245.0818 52.64018 244.8268 53.79418 C 245.7218 54.69018 246.9398 56.03618 248.4778 57.82918 C 251.0388 60.51818 252.9598 62.63118 254.2418 64.16918 L 250.9758 67.05118 C 250.4618 66.40918 249.6928 65.51418 248.6698 64.36118 C 247.6438 63.08318 245.9788 61.09418 243.6738 58.40518 C 242.2628 62.76018 238.9968 67.05118 233.8748 71.27818 C 232.5928 69.74118 231.5688 68.58818 230.8008 67.81918 C 237.0748 62.82418 240.4708 56.93318 240.9838 50.14218 L 231.3768 50.14218 L 231.3768 46.107177 L 241.1768 46.107177 C 241.3028 43.930177 241.3678 40.471177 241.3678 35.731177 L 237.5248 35.731177 C 236.6278 38.038177 235.6038 40.342177 234.4508 42.649177" fill="#373d41"/>
      <path d="M 38.21121 94.54958 L 44.27821 94.54958 L 42.41021 89.59358 C 41.84021 88.08858 41.41721 86.85158 41.14121 85.88258 C 40.91321 87.02958 40.59121 88.16958 40.17621 89.30058 Z M 33.04721 101.89858 L 39.92021 84.00258 L 42.47121 84.00258 L 49.79521 101.89858 L 47.09821 101.89858 L 45.01021 96.47858 L 37.52721 96.47858 L 35.56221 101.89858 Z" fill="#373d41"/>
      <rect x="51.35781" y="84.00318" width="2.197" height="17.896" fill="#373d41"/>
      <path d="M 56.97381 88.93418 L 59.17081 88.93418 L 59.17081 101.89818 L 56.97381 101.89818 Z M 56.97381 84.00318 L 59.17081 84.00318 L 59.17081 86.53018 L 56.97381 86.53018 Z" fill="#373d41"/>
      <path d="M 64.51741 95.31818 C 64.51741 96.87318 64.72841 97.99618 65.15241 98.68718 C 65.84341 99.81918 66.77941 100.38418 67.95941 100.38418 C 68.91941 100.38418 69.74941 99.96718 70.45041 99.13318 C 71.14941 98.29918 71.49941 97.05618 71.49941 95.40418 C 71.49941 93.71218 71.16441 92.46318 70.49241 91.65618 C 69.82141 90.85118 69.00941 90.44818 68.05741 90.44818 C 67.09741 90.44818 66.26741 90.86518 65.56741 91.69918 C 64.86741 92.53418 64.51741 93.74018 64.51741 95.31818 Z M 64.54141 101.89818 L 62.50341 101.89818 L 62.50341 84.00318 L 64.70041 84.00318 L 64.70041 90.38618 C 65.62841 89.22318 66.81241 88.64118 68.25241 88.64118 C 69.05041 88.64118 69.80541 88.80118 70.51741 89.12418 C 71.22941 89.44518 71.81541 89.89718 72.27441 90.47818 C 72.73441 91.06018 73.09441 91.76218 73.35541 92.58418 C 73.61541 93.40618 73.74641 94.28518 73.74641 95.22018 C 73.74641 97.44318 73.19641 99.16018 72.09841 100.37318 C 70.99941 101.58518 69.68141 102.19118 68.14241 102.19118 C 66.61241 102.19118 65.41241 101.55218 64.54141 100.27518 Z" fill="#373d41"/>
      <path d="M 84.69561 95.39238 C 83.89761 95.71738 82.70161 95.99438 81.10661 96.22238 C 80.20361 96.35238 79.56461 96.49838 79.19061 96.66238 C 78.81561 96.82438 78.52661 97.06238 78.32361 97.37538 C 78.11961 97.68938 78.01861 98.03738 78.01861 98.41938 C 78.01861 99.00538 78.23961 99.49438 78.68361 99.88438 C 79.12761 100.27538 79.77661 100.47038 80.63061 100.47038 C 81.47661 100.47038 82.22961 100.28538 82.88861 99.91438 C 83.54861 99.54438 84.03161 99.03838 84.34161 98.39438 C 84.57761 97.89838 84.69561 97.16538 84.69561 96.19738 L 84.69561 95.39238 M 84.87861 100.29838 C 84.06461 100.99138 83.28161 101.47938 82.52861 101.76338 C 81.77661 102.04838 80.96761 102.19138 80.10561 102.19138 C 78.68161 102.19138 77.58661 101.84338 76.82161 101.14738 C 76.05661 100.45238 75.67461 99.56238 75.67461 98.48038 C 75.67461 97.84538 75.81961 97.26538 76.10861 96.74138 C 76.39661 96.21538 76.77561 95.79438 77.24261 95.47738 C 77.71161 95.16038 78.23761 94.91938 78.82361 94.75738 C 79.25561 94.64338 79.90561 94.53338 80.77761 94.42738 C 82.55061 94.21538 83.85761 93.96338 84.69561 93.67038 C 84.70361 93.37038 84.70761 93.17838 84.70761 93.09738 C 84.70761 92.20238 84.50061 91.57138 84.08561 91.20538 C 83.52361 90.70838 82.68961 90.46038 81.58261 90.46038 C 80.54961 90.46038 79.78661 90.64138 79.29361 91.00338 C 78.80161 91.36638 78.43761 92.00638 78.20161 92.92538 L 76.05261 92.63238 C 76.24861 91.71338 76.56961 90.97138 77.01761 90.40538 C 77.46461 89.83938 78.11161 89.40438 78.95861 89.09938 C 79.80461 88.79338 80.78461 88.64138 81.90061 88.64138 C 83.00661 88.64138 83.90561 88.77238 84.59761 89.03238 C 85.28961 89.29238 85.79861 89.62038 86.12361 90.01438 C 86.44861 90.41038 86.67661 90.90838 86.80761 91.50938 C 86.88061 91.88438 86.91761 92.56038 86.91761 93.53738 L 86.91761 96.46638 C 86.91761 98.50838 86.96461 99.80038 87.05761 100.34138 C 87.15161 100.88338 87.33661 101.40238 87.61261 101.89838 L 85.31861 101.89838 C 85.09061 101.44238 84.94361 100.91038 84.87861 100.29838" fill="#373d41"/>
      <path d="M 92.32501 95.31818 C 92.32501 96.87318 92.53601 97.99618 92.96001 98.68718 C 93.65101 99.81918 94.58701 100.38418 95.76701 100.38418 C 96.72701 100.38418 97.55701 99.96718 98.25801 99.13318 C 98.95701 98.29918 99.30701 97.05618 99.30701 95.40418 C 99.30701 93.71218 98.97201 92.46318 98.30001 91.65618 C 97.62901 90.85118 96.81701 90.44818 95.86501 90.44818 C 94.90501 90.44818 94.07501 90.86518 93.37501 91.69918 C 92.67501 92.53418 92.32501 93.74018 92.32501 95.31818 Z M 92.34901 101.89818 L 90.31101 101.89818 L 90.31101 84.00318 L 92.50801 84.00318 L 92.50801 90.38618 C 93.43601 89.22318 94.62001 88.64118 96.06001 88.64118 C 96.85801 88.64118 97.61301 88.80118 98.32501 89.12418 C 99.03701 89.44518 99.62301 89.89718 100.08201 90.47818 C 100.54201 91.06018 100.90201 91.76218 101.16301 92.58418 C 101.42301 93.40618 101.55401 94.28518 101.55401 95.22018 C 101.55401 97.44318 101.00401 99.16018 99.90601 100.37318 C 98.80701 101.58518 97.48901 102.19118 95.95001 102.19118 C 94.42001 102.19118 93.22001 101.55218 92.34901 100.27518 Z" fill="#373d41"/>
      <path d="M 112.50321 95.39238 C 111.70521 95.71738 110.50921 95.99438 108.91421 96.22238 C 108.01121 96.35238 107.37221 96.49838 106.99821 96.66238 C 106.62321 96.82438 106.33421 97.06238 106.13121 97.37538 C 105.92721 97.68938 105.82621 98.03738 105.82621 98.41938 C 105.82621 99.00538 106.04721 99.49438 106.49121 99.88438 C 106.93521 100.27538 107.58421 100.47038 108.43821 100.47038 C 109.28421 100.47038 110.03721 100.28538 110.69621 99.91438 C 111.35621 99.54438 111.83921 99.03838 112.14921 98.39438 C 112.38521 97.89838 112.50321 97.16538 112.50321 96.19738 L 112.50321 95.39238 M 112.68621 100.29838 C 111.87221 100.99138 111.08921 101.47938 110.33621 101.76338 C 109.58421 102.04838 108.77521 102.19138 107.91321 102.19138 C 106.48921 102.19138 105.39421 101.84338 104.62921 101.14738 C 103.86421 100.45238 103.48221 99.56238 103.48221 98.48038 C 103.48221 97.84538 103.62721 97.26538 103.91621 96.74138 C 104.20421 96.21538 104.58321 95.79438 105.05021 95.47738 C 105.51921 95.16038 106.04521 94.91938 106.63121 94.75738 C 107.06321 94.64338 107.71321 94.53338 108.58521 94.42738 C 110.35821 94.21538 111.66521 93.96338 112.50321 93.67038 C 112.51121 93.37038 112.51521 93.17838 112.51521 93.09738 C 112.51521 92.20238 112.30821 91.57138 111.89321 91.20538 C 111.33121 90.70838 110.49721 90.46038 109.39021 90.46038 C 108.35721 90.46038 107.59421 90.64138 107.10121 91.00338 C 106.60921 91.36638 106.24521 92.00638 106.00921 92.92538 L 103.86021 92.63238 C 104.05621 91.71338 104.37721 90.97138 104.82521 90.40538 C 105.27221 89.83938 105.91921 89.40438 106.76621 89.09938 C 107.61221 88.79338 108.59221 88.64138 109.70821 88.64138 C 110.81421 88.64138 111.71321 88.77238 112.40521 89.03238 C 113.09721 89.29238 113.60621 89.62038 113.93121 90.01438 C 114.25621 90.41038 114.48421 90.90838 114.61521 91.50938 C 114.68821 91.88438 114.72521 92.56038 114.72521 93.53738 L 114.72521 96.46638 C 114.72521 98.50838 114.77221 99.80038 114.86521 100.34138 C 114.95921 100.88338 115.14421 101.40238 115.42021 101.89838 L 113.12621 101.89838 C 112.89821 101.44238 112.75121 100.91038 112.68621 100.29838" fill="#373d41"/>
      <path d="M 138.12581 95.62388 L 140.49381 96.22288 C 139.99781 98.16688 139.10481 99.64988 137.81381 100.67188 C 136.52481 101.69288 134.94781 102.20288 133.08381 102.20288 C 131.15581 102.20288 129.58681 101.81088 128.37881 101.02488 C 127.16981 100.23988 126.25081 99.10288 125.61981 97.61288 C 124.98881 96.12488 124.67381 94.52488 124.67381 92.81588 C 124.67381 90.95288 125.02981 89.32688 125.74181 87.93888 C 126.45381 86.55188 127.46681 85.49788 128.78081 84.77788 C 130.09581 84.05788 131.54181 83.69788 133.12081 83.69788 C 134.91081 83.69788 136.41681 84.15288 137.63781 85.06488 C 138.85781 85.97688 139.70881 87.25888 140.18881 88.90988 L 137.85681 89.45988 C 137.44181 88.15688 136.83981 87.20988 136.05081 86.61488 C 135.26081 86.02088 134.26881 85.72388 133.07181 85.72388 C 131.69681 85.72388 130.54681 86.05388 129.62381 86.71288 C 128.69981 87.37188 128.05081 88.25688 127.67681 89.36788 C 127.30181 90.47788 127.11481 91.62388 127.11481 92.80488 C 127.11481 94.32588 127.33681 95.65388 127.77981 96.78988 C 128.22381 97.92488 128.91381 98.77288 129.84981 99.33488 C 130.78481 99.89588 131.79781 100.17788 132.88881 100.17788 C 134.21481 100.17788 135.33781 99.79488 136.25781 99.02888 C 137.17781 98.26488 137.79981 97.12988 138.12581 95.62388 Z" fill="#373d41"/>
      <rect x="143.08181" y="84.00318" width="2.197" height="17.896" fill="#373d41"/>
      <path d="M 150.12531 95.41578 C 150.12531 97.07578 150.48731 98.31978 151.21131 99.14478 C 151.93631 99.97178 152.84731 100.38478 153.94631 100.38478 C 155.03631 100.38478 155.94331 99.96978 156.66831 99.13978 C 157.39231 98.30978 157.75431 97.04378 157.75431 95.34378 C 157.75431 93.73978 157.39031 92.52478 156.66231 91.69878 C 155.93431 90.87378 155.02831 90.46078 153.94631 90.46078 C 152.84731 90.46078 151.93631 90.87078 151.21131 91.69278 C 150.48731 92.51578 150.12531 93.75578 150.12531 95.41578 M 147.86731 95.41578 C 147.86731 93.01578 148.53431 91.23678 149.86931 90.08178 C 150.98331 89.12178 152.34231 88.64178 153.94631 88.64178 C 155.72831 88.64178 157.18531 89.22578 158.31631 90.39378 C 159.44731 91.56178 160.01331 93.17478 160.01331 95.23278 C 160.01331 96.90078 159.76231 98.21378 159.26231 99.16978 C 158.76131 100.12678 158.03331 100.86878 157.07731 101.39778 C 156.12131 101.92678 155.07731 102.19078 153.94631 102.19078 C 152.13131 102.19078 150.66431 101.60878 149.54531 100.44478 C 148.42631 99.28178 147.86731 97.60478 147.86731 95.41578" fill="#373d41"/>
      <path d="M 171.0848 101.89828 L 171.0848 99.99428 C 170.0758 101.45928 168.7048 102.19128 166.97081 102.19128 C 166.20581 102.19128 165.49181 102.04428 164.82881 101.75228 C 164.16581 101.45928 163.67281 101.09028 163.35181 100.64728 C 163.02981 100.20428 162.80381 99.66028 162.67381 99.01728 C 162.58481 98.58528 162.53981 97.90228 162.53981 96.96628 L 162.53981 88.93428 L 164.73681 88.93428 L 164.73681 96.12528 C 164.73681 97.27128 164.78181 98.04428 164.87181 98.44328 C 165.00981 99.02128 165.30281 99.47528 165.75081 99.80428 C 166.19781 100.13428 166.75181 100.29828 167.41081 100.29828 C 168.0698 100.29828 168.6878 100.13028 169.2658 99.79328 C 169.8438 99.45528 170.2528 98.99528 170.4928 98.41328 C 170.7328 97.83228 170.8528 96.98728 170.8528 95.88028 L 170.8528 88.93428 L 173.0498 88.93428 L 173.0498 101.89828 Z" fill="#373d41"/>
      <path d="M 177.9573 95.42848 C 177.9573 97.08848 178.3073 98.32948 179.0063 99.15248 C 179.7073 99.97348 180.5333 100.38448 181.4853 100.38448 C 182.4453 100.38448 183.2613 99.99148 183.9323 99.20648 C 184.6043 98.42148 184.9403 97.22248 184.9403 95.61148 C 184.9403 93.83748 184.5983 92.53448 183.9153 91.70448 C 183.2313 90.87448 182.3883 90.46048 181.3873 90.46048 C 180.4113 90.46048 179.5943 90.85948 178.9403 91.65648 C 178.2853 92.45348 177.9573 93.71148 177.9573 95.42848 Z M 184.9033 101.89848 L 184.9033 100.26248 C 184.0813 101.54848 182.8733 102.19148 181.2783 102.19148 C 180.2443 102.19148 179.2933 101.90648 178.4273 101.33648 C 177.5603 100.76748 176.8893 99.97148 176.4133 98.94948 C 175.9373 97.92948 175.6993 96.75448 175.6993 95.42848 C 175.6993 94.13448 175.9143 92.96048 176.3463 91.90748 C 176.7773 90.85348 177.4243 90.04448 178.2873 89.48348 C 179.1493 88.92248 180.1143 88.64148 181.1803 88.64148 C 181.9613 88.64148 182.6573 88.80648 183.2673 89.13548 C 183.8773 89.46548 184.3743 89.89548 184.7563 90.42348 L 184.7563 84.00248 L 186.9423 84.00248 L 186.9423 101.89848 Z" fill="#373d41"/>
      <path d="M 195.8035 101.89828 L 202.7255 92.57228 L 196.6215 84.00228 L 199.4425 84.00228 L 202.6885 88.59228 C 203.3645 89.54428 203.8445 90.27728 204.1295 90.79028 C 204.5285 90.13828 204.9995 89.46028 205.5455 88.75128 L 209.1465 84.00228 L 211.7215 84.00228 L 205.4355 92.43728 L 212.2095 101.89828 L 209.2805 101.89828 L 204.7765 95.51328 C 204.5245 95.14828 204.2635 94.74928 203.9945 94.31828 C 203.5965 94.96828 203.3115 95.41628 203.1405 95.66028 L 198.6485 101.89828 Z" fill="#373d41"/>
      <path d="M 214.0288 88.93418 L 216.2258 88.93418 L 216.2258 101.89818 L 214.0288 101.89818 Z M 214.0288 84.00318 L 216.2258 84.00318 L 216.2258 86.53018 L 214.0288 86.53018 Z" fill="#373d41"/>
      <path d="M 227.8465 95.39238 C 227.0495 95.71738 225.8535 95.99438 224.2585 96.22238 C 223.3545 96.35238 222.7155 96.49838 222.3415 96.66238 C 221.9675 96.82438 221.6785 97.06238 221.4755 97.37538 C 221.2715 97.68938 221.1695 98.03738 221.1695 98.41938 C 221.1695 99.00538 221.3915 99.49438 221.8345 99.88438 C 222.2785 100.27538 222.9275 100.47038 223.7825 100.47038 C 224.6285 100.47038 225.3815 100.28538 226.0395 99.91438 C 226.7005 99.54438 227.1835 99.03838 227.4925 98.39438 C 227.7295 97.89838 227.8465 97.16538 227.8465 96.19738 L 227.8465 95.39238 M 228.0305 100.29838 C 227.2165 100.99138 226.4325 101.47938 225.6805 101.76338 C 224.9275 102.04838 224.1195 102.19138 223.2565 102.19138 C 221.8325 102.19138 220.7385 101.84338 219.9735 101.14738 C 219.2085 100.45238 218.8255 99.56238 218.8255 98.48038 C 218.8255 97.84538 218.9705 97.26538 219.2595 96.74138 C 219.5475 96.21538 219.9265 95.79438 220.3945 95.47738 C 220.8625 95.16038 221.3895 94.91938 221.9755 94.75738 C 222.4075 94.64338 223.0575 94.53338 223.9285 94.42738 C 225.7025 94.21538 227.0085 93.96338 227.8465 93.67038 C 227.8555 93.37038 227.8595 93.17838 227.8595 93.09738 C 227.8595 92.20238 227.6515 91.57138 227.2375 91.20538 C 226.6745 90.70838 225.8405 90.46038 224.7345 90.46038 C 223.7005 90.46038 222.9375 90.64138 222.4455 91.00338 C 221.9525 91.36638 221.5885 92.00638 221.3525 92.92538 L 219.2035 92.63238 C 219.3995 91.71338 219.7215 90.97138 220.1685 90.40538 C 220.6165 89.83938 221.2635 89.40438 222.1105 89.09938 C 222.9555 88.79338 223.9365 88.64138 225.0515 88.64138 C 226.1585 88.64138 227.0575 88.77238 227.7485 89.03238 C 228.4415 89.29238 228.9505 89.62038 229.2755 90.01438 C 229.6005 90.41038 229.8285 90.90838 229.9585 91.50938 C 230.0325 91.88438 230.0695 92.56038 230.0695 93.53738 L 230.0695 96.46638 C 230.0695 98.50838 230.1155 99.80038 230.2085 100.34138 C 230.3025 100.88338 230.4885 101.40238 230.7645 101.89838 L 228.4695 101.89838 C 228.2425 101.44238 228.0955 100.91038 228.0305 100.29838" fill="#373d41"/>
      <path d="M 233.4754 101.89828 L 233.4754 88.93428 L 235.4524 88.93428 L 235.4524 90.77728 C 236.4054 89.35428 237.7804 88.64128 239.5794 88.64128 C 240.3604 88.64128 241.0784 88.78228 241.7334 89.06228 C 242.3874 89.34328 242.8784 89.71128 243.2044 90.16828 C 243.5294 90.62328 243.7574 91.16428 243.8874 91.79128 C 243.9684 92.19828 244.0094 92.91028 244.0094 93.92728 L 244.0094 101.89828 L 241.8124 101.89828 L 241.8124 94.01228 C 241.8124 93.11728 241.7274 92.44828 241.5554 92.00428 C 241.3854 91.56128 241.0814 91.20728 240.6464 90.94228 C 240.2104 90.67828 239.7004 90.54528 239.1144 90.54528 C 238.1784 90.54528 237.3714 90.84228 236.6914 91.43728 C 236.0114 92.03128 235.6724 93.15828 235.6724 94.81828 L 235.6724 101.89828 Z" fill="#373d41"/>
      <path d="M 246.2312 101.89828 L 246.2312 99.70128 L 255.3992 88.23928 C 256.0502 87.42428 256.6692 86.71728 257.2542 86.11428 L 247.2692 86.11428 L 247.2692 84.00228 L 260.0862 84.00228 L 260.0862 86.11428 L 250.0402 98.52928 L 248.9542 99.78728 L 260.3792 99.78728 L 260.3792 101.89828 Z" fill="#373d41"/>
      <path d="M 262.6512 101.89828 L 262.6512 84.00228 L 264.8482 84.00228 L 264.8482 90.42328 C 265.8742 89.23528 267.1672 88.64128 268.7292 88.64128 C 269.6902 88.64128 270.5242 88.83128 271.2322 89.20928 C 271.9402 89.58728 272.4472 90.11028 272.7522 90.77728 C 273.0572 91.44528 273.2102 92.41428 273.2102 93.68328 L 273.2102 101.89828 L 271.0122 101.89828 L 271.0122 93.68328 C 271.0122 92.58428 270.7742 91.78528 270.2982 91.28428 C 269.8222 90.78428 269.1492 90.53328 268.2782 90.53328 C 267.6272 90.53328 267.0142 90.70328 266.4412 91.04028 C 265.8672 91.37728 265.4582 91.83528 265.2142 92.41428 C 264.9692 92.99128 264.8482 93.78928 264.8482 94.80628 L 264.8482 101.89828 Z" fill="#373d41"/>
      <path d="M 276.5668 88.93418 L 278.7638 88.93418 L 278.7638 101.89818 L 276.5668 101.89818 Z M 276.5668 84.00318 L 278.7638 84.00318 L 278.7638 86.53018 L 276.5668 86.53018 Z" fill="#373d41"/>
    </g>
  </g>
</svg>
