<svg xmlns="http://www.w3.org/2000/svg" xmlns:xlink="http://www.w3.org/1999/xlink" version="1.1" height="69" width="331.26854030064175" viewBox="0 0 331.26854030064175 69"><g id="SvgjsG2239" rel="mainfill" name="main_text" xmlns:name="mainText_mainfill" fill="#ffffff" transform="translate(110.10857210329601,0.7799978256225586)"><path d="M20.4 56.52 l-3.12 1.14 l-3.48 1.14 l-1.92 0.6 l0 -0.06 l-1.02 0.36 l-0.66 0.24 l0.06 0 c-0.54 0.3 -0.96 0.3 -1.02 -0.54 l-1.56 -5.58 l-0.36 -1.44 l0 0.06 l-0.3 -1.26 l-0.36 -1.62 l-0.36 -1.5 c-0.9 -4.02 -1.68 -7.98 -2.46 -12.06 c-1.5 -7.86 -2.88 -16.14 -4.14 -24 c-0.18 -1.26 0.6 -2.46 1.92 -2.88 l3.96 -1.08 l-0.06 0 c1.2 -0.36 2.4 0.6 2.64 1.98 c1.32 8.1 2.64 16.2 4.14 24.12 c0.72 3.72 1.44 7.38 2.28 10.98 l10.44 -35.7 c0.48 -1.38 1.8 -2.22 2.94 -1.74 l4.32 2.1 c0.9 0.42 1.38 1.74 1.08 2.76 z M62.616 58.86 l-0.06 0 c-3 0.78 -5.94 1.08 -8.88 1.14 l-2.7 0 l-0.66 -0.06 c-0.24 0 -0.48 -0.06 -0.66 -0.06 c-0.42 0 -0.96 -0.06 -1.32 -0.12 c-0.6 -0.06 -1.38 -0.24 -2.04 -0.54 c0.06 0.06 -0.12 0 -0.18 -0.06 l-0.3 -0.18 c-0.24 0 -0.36 -0.12 -0.48 -0.24 l-0.18 -0.06 l-0.36 -0.36 c-0.48 -0.48 -0.9 -1.02 -1.26 -1.68 c-0.18 -0.24 -0.3 -0.48 -0.36 -0.78 l-0.36 -0.9 l-0.12 -0.6 l-0.36 -1.2 c-0.06 -0.3 -0.12 -0.78 -0.12 -0.96 l-0.12 -0.42 c-0.06 -0.3 -0.12 -0.78 -0.12 -1.14 c-0.06 -0.3 -0.06 -1.02 -0.06 -1.14 c-0.12 -1.38 -0.18 -2.88 -0.24 -4.26 l0 -2.1 c0 -4.74 0.18 -9.42 0.42 -14.04 l0.42 -7.8 c0.18 -2.64 0.36 -5.28 0.42 -7.8 c0 -0.72 0.36 -1.38 0.9 -1.92 l0.18 0 c0.12 -0.06 0.3 -0.12 0.54 -0.12 l0.3 0 l0.36 -0.06 l0.3 0 c0.06 0 0.12 -0.06 0.18 -0.06 l0.3 0 c0.42 0 1.02 0.06 1.8 0.12 c1.2 0.12 2.58 0.36 2.58 0.36 c0.96 0.24 1.74 1.44 1.74 2.76 l-0.24 4.14 l-0.18 3.66 c-0.12 2.58 -0.36 5.22 -0.48 7.8 c-0.18 4.2 -0.42 8.34 -0.42 12.48 c0 0.96 0.06 1.92 0.06 2.82 c0 1.2 0.06 2.46 0.18 3.66 l0.18 1.68 l0 0.06 l2.52 0 c2.22 -0.06 4.56 -0.3 6.54 -0.9 c0.72 -0.18 1.2 -0.36 1.5 -0.48 c0.12 0 0.3 -0.06 0.48 -0.18 c0 -0.06 0.06 -0.18 0.18 -0.24 l0.18 -1.98 c0.06 -0.66 0.06 -1.68 0.06 -2.28 l0.06 -1.2 l0 -3.48 c-0.06 -3.18 -0.18 -6.3 -0.36 -9.48 c-0.36 -6.18 -0.96 -12.96 -1.74 -19.08 c-0.12 -1.38 0.48 -2.52 1.62 -2.82 l4.68 -1.14 l-0.06 0 c1.2 -0.36 2.4 0.78 2.64 2.34 c0.84 6.6 1.5 13.2 1.92 19.86 c0.18 3.36 0.3 6.72 0.36 10.14 l0 3.78 l-0.06 1.26 c0 0.84 0 1.8 -0.06 2.64 l-0.18 2.64 c-0.12 1.38 -0.54 2.64 -1.26 3.78 l-0.66 0.72 l-0.6 0.72 c-0.42 0.42 -0.84 0.78 -1.44 1.14 c-1.92 1.32 -3.42 1.8 -4.92 2.22 z M51.396 51.42 c0 -0.36 0 -0.48 -0.18 -0.54 l0.06 0.36 z M45.576 58.8 l-0.24 -0.06 l0.42 0.12 c-0.06 0 -0.12 -0.06 -0.18 -0.06 z M105.372 40.379999999999995 l0.06 0 c1.02 0.18 1.68 0.96 1.68 2.16 l0.12 17.52 l-21.24 -1.32 l-3.72 -0.24 c-0.3 0 -0.66 -0.06 -0.96 -0.06 l-0.42 0 l-0.24 -0.06 l-0.84 -0.06 l0.24 -2.52 c0.06 -1.2 0.24 -2.52 0.3 -3.72 l0.18 -1.92 c0 -0.3 0.06 -0.66 0.06 -0.96 l0.36 -7.8 c0.3 -10.2 0.42 -21.12 0.48 -31.38 c0 -1.02 0.84 -1.92 1.86 -2.04 l4.44 -0.36 c1.14 -0.18 2.16 0.78 2.16 2.1 c0 10.56 -0.06 21.18 -0.42 31.74 c-0.06 2.52 -0.18 5.58 -0.36 8.04 c0 0.24 -0.06 0.6 -0.06 0.84 l0.48 0 l1.92 0.12 l3.96 0.24 l3.18 0.18 l0 -0.42 l-0.06 -1.68 l-0.06 -6.78 c0 -1.2 1.2 -2.1 2.22 -2.1 z M143.748 12.060000000000002 c1.02 0.12 1.86 0.72 1.8 1.5 c0 0 -0.3 11.22 -0.72 22.44 c-0.24 5.7 -0.48 11.34 -0.72 15.6 c-0.24 4.2 -0.42 7.08 -0.42 7.08 c-0.06 0.72 -0.96 1.26 -1.98 1.26 l-4.68 -0.06 c-1.08 -0.12 -2.1 -0.84 -2.1 -1.62 c0.06 -0.54 0.18 -3.24 0.36 -7.02 c0.06 -1.74 0.12 -3.78 0.24 -5.82 l0 -0.48 l-9.06 0.78 c0 4.08 0.12 8.46 0.12 12.48 c0 0.72 -0.84 1.38 -1.98 1.5 l-4.62 0.3 c-1.2 0.06 -2.22 -0.66 -2.22 -1.5 l-0.24 -12.12 c-0.24 0.06 -0.36 0.06 -0.54 0.06 c-0.6 0.18 -1.14 -0.66 -1.26 -1.86 l-0.42 -4.62 c-0.12 -1.08 0.36 -2.16 0.9 -2.28 l1.2 -0.12 l-0.42 -28.44 c0 -0.96 1.02 -1.62 2.28 -1.5 l4.92 0.3 c1.02 0.06 1.74 0.72 1.86 1.5 l0.3 27.36 l9.54 -0.9 l0 -0.3 c0.36 -11.34 0.66 -22.68 0.66 -22.68 c0 -0.66 1.32 -1.38 2.34 -1.38 z M174.68400000000003 58.86 l-0.06 0 c-3 0.78 -5.94 1.08 -8.88 1.14 l-2.7 0 l-0.66 -0.06 c-0.24 0 -0.48 -0.06 -0.66 -0.06 c-0.42 0 -0.96 -0.06 -1.32 -0.12 c-0.6 -0.06 -1.38 -0.24 -2.04 -0.54 c0.06 0.06 -0.12 0 -0.18 -0.06 l-0.3 -0.18 c-0.24 0 -0.36 -0.12 -0.48 -0.24 l-0.18 -0.06 l-0.36 -0.36 c-0.48 -0.48 -0.9 -1.02 -1.26 -1.68 c-0.18 -0.24 -0.3 -0.48 -0.36 -0.78 l-0.36 -0.9 l-0.12 -0.6 l-0.36 -1.2 c-0.06 -0.3 -0.12 -0.78 -0.12 -0.96 l-0.12 -0.42 c-0.06 -0.3 -0.12 -0.78 -0.12 -1.14 c-0.06 -0.3 -0.06 -1.02 -0.06 -1.14 c-0.12 -1.38 -0.18 -2.88 -0.24 -4.26 l0 -2.1 c0 -4.74 0.18 -9.42 0.42 -14.04 l0.42 -7.8 c0.18 -2.64 0.36 -5.28 0.42 -7.8 c0 -0.72 0.36 -1.38 0.9 -1.92 l0.18 0 c0.12 -0.06 0.3 -0.12 0.54 -0.12 l0.3 0 l0.36 -0.06 l0.3 0 c0.06 0 0.12 -0.06 0.18 -0.06 l0.3 0 c0.42 0 1.02 0.06 1.8 0.12 c1.2 0.12 2.58 0.36 2.58 0.36 c0.96 0.24 1.74 1.44 1.74 2.76 l-0.24 4.14 l-0.18 3.66 c-0.12 2.58 -0.36 5.22 -0.48 7.8 c-0.18 4.2 -0.42 8.34 -0.42 12.48 c0 0.96 0.06 1.92 0.06 2.82 c0 1.2 0.06 2.46 0.18 3.66 l0.18 1.68 l0 0.06 l2.52 0 c2.22 -0.06 4.56 -0.3 6.54 -0.9 c0.72 -0.18 1.2 -0.36 1.5 -0.48 c0.12 0 0.3 -0.06 0.48 -0.18 c0 -0.06 0.06 -0.18 0.18 -0.24 l0.18 -1.98 c0.06 -0.66 0.06 -1.68 0.06 -2.28 l0.06 -1.2 l0 -3.48 c-0.06 -3.18 -0.18 -6.3 -0.36 -9.48 c-0.36 -6.18 -0.96 -12.96 -1.74 -19.08 c-0.12 -1.38 0.48 -2.52 1.62 -2.82 l4.68 -1.14 l-0.06 0 c1.2 -0.36 2.4 0.78 2.64 2.34 c0.84 6.6 1.5 13.2 1.92 19.86 c0.18 3.36 0.3 6.72 0.36 10.14 l0 3.78 l-0.06 1.26 c0 0.84 0 1.8 -0.06 2.64 l-0.18 2.64 c-0.12 1.38 -0.54 2.64 -1.26 3.78 l-0.66 0.72 l-0.6 0.72 c-0.42 0.42 -0.84 0.78 -1.44 1.14 c-1.92 1.32 -3.42 1.8 -4.92 2.22 z M163.464 51.42 c0 -0.36 0 -0.48 -0.18 -0.54 l0.06 0.36 z M157.644 58.8 l-0.24 -0.06 l0.42 0.12 c-0.06 0 -0.12 -0.06 -0.18 -0.06 z M192.66000000000003 49.86 l0.06 -1.5 l0.12 -2.7 c-0.66 -0.6 -1.02 -1.2 -0.72 -1.98 c0 0 0.12 -0.24 0.3 -0.66 l0.24 -0.6 l0.3 -0.84 l0.18 -0.3 l0.66 -11.52 c0.24 -4.08 0.6 -8.22 0.84 -12.36 c0.06 -1.2 0.24 -2.52 0.3 -3.72 l0 -0.42 c0.06 -0.96 0.12 -1.98 0.54 -2.64 l0 0.12 l0.18 -0.42 c0 -0.06 0.12 -0.24 0.12 -0.3 c0 -0.18 0 -0.18 0.24 -0.54 l0.12 -0.18 c0 -0.06 0.06 -0.18 0.06 -0.18 l0.78 -0.54 l0.06 0 c0.78 -0.54 1.62 -0.78 2.64 -0.9 c0.24 -0.06 0.66 -0.06 0.9 -0.06 l4.86 0 l1.02 0.12 c1.32 0.18 2.82 0.54 4.2 1.2 c1.5 0.72 2.94 1.74 4.02 3.12 s1.8 2.94 2.16 4.44 l0.12 0.48 c0.06 0.54 0.12 1.02 0.12 1.56 c0.06 0.3 0.12 0.72 0.12 1.08 l0 1.02 l-0.18 6.18 c0 0.72 -0.12 1.44 -0.12 2.1 c-0.06 1.44 -0.12 2.88 -0.24 4.32 c-0.18 2.1 -0.36 4.44 -0.78 6.6 c0 0 -0.06 0.18 -0.06 0.3 c1.2 0.48 2.4 1.5 3.12 2.4 c1.02 1.5 1.68 3.12 1.98 4.62 c0.12 0.72 0.24 1.44 0.24 2.34 c0 0.84 -0.12 1.56 -0.24 2.34 l-0.72 2.34 l-0.48 1.02 l0 -0.06 l-0.36 0.72 l-0.36 0.66 c-0.42 0.36 -0.6 0.6 -0.78 0.78 l-0.36 0.3 c-0.24 0.18 -0.6 0.48 -0.84 0.6 l-0.24 0.18 c-0.18 0.18 -0.6 0.36 -0.84 0.42 l-0.36 0.12 l-0.72 0.3 c-0.84 0.3 -1.98 0.48 -3 0.6 s-1.92 0.18 -2.94 0.18 c-0.96 0 -1.86 0 -2.76 -0.06 c-1.74 -0.06 -3.66 -0.24 -5.28 -0.48 l-1.32 -0.18 l-1.02 -0.18 l-1.14 -0.18 l-2.94 -0.48 l-2.04 -0.48 l0.06 -3.36 l0.12 -2.64 l0 -1.26 z M203.16000000000003 16.020000000000003 l-0.12 2.4 c-0.18 4.02 -0.54 8.16 -0.78 12.24 l-0.6 8.1 l1.38 0.18 c1.02 0.12 1.98 0.18 2.88 0.18 c0.48 0.06 0.84 0.06 1.26 0.06 l0.18 -0.06 l-0.12 0.36 l0.12 -0.24 l0.06 -0.06 l-0.06 -0.06 l0.12 0 l0 0.06 l0.9 0.12 c0 -0.9 -0.48 -2.52 -0.66 -2.1 c0.18 -1.68 0.36 -3.54 0.48 -5.34 c0.12 -1.98 0.24 -3.9 0.3 -5.94 c0 -1.02 0.12 -2.04 0.12 -3.06 l0.06 -1.5 l0 -0.42 l0.06 -0.36 l0 -0.6 c0 -0.06 -0.06 -0.12 -0.06 -0.24 l0 -0.3 c0 -0.18 0 -0.3 -0.06 -0.48 c0 -0.12 -0.06 -0.24 -0.06 -0.3 l-0.06 -0.18 c0 -0.12 -0.06 -0.36 -0.06 -0.42 c-0.18 -0.42 -0.3 -0.66 -0.54 -0.9 c-0.18 -0.24 -0.54 -0.48 -1.02 -0.66 l0.06 0.06 c-0.6 -0.18 -1.32 -0.36 -1.86 -0.42 c-0.18 -0.06 -0.36 -0.06 -0.6 -0.06 l-0.66 0 z M212.28000000000003 51.72 l0.54 -0.6 l-0.36 0.06 c-0.06 0.06 -0.06 0.06 -0.12 0.06 l0.12 -0.18 c0 -0.18 0.06 -0.3 0.18 -0.48 l-0.06 0.12 c0.06 -0.06 0.12 -0.18 0.12 -0.3 l0 -0.06 c0.06 -0.48 0.06 -1.14 -0.06 -1.68 l-0.3 -0.9 l-2.28 0 c-0.54 0 -1.08 -0.06 -1.62 -0.18 l-0.24 0 c-0.12 0 -0.3 0.06 -0.48 0.06 l-1.32 0 c-0.6 0 -1.26 0 -1.8 -0.06 c-1.08 -0.06 -2.22 -0.12 -3.24 -0.24 l-0.24 0 c0.06 -0.18 0.06 -0.42 0.06 -0.66 l-0.78 0.54 c0.24 0.06 0.42 0.06 0.6 0.06 c0.06 0 0.06 0.06 0.12 0.06 c0 0.48 -0.06 0.96 -0.06 1.44 l-0.06 1.5 l0 0.78 l1.02 0.12 c1.56 0.18 3.06 0.36 4.56 0.42 c0.66 0 1.26 0.06 1.92 0.06 c0.78 0 1.68 -0.06 2.4 -0.12 c0.54 -0.06 1.08 -0.06 1.44 -0.3 l0 0.12 c0 0.06 -0.06 0.3 -0.06 0.36 z M200.82000000000002 51 l-0.24 -0.06 c-0.06 0 -0.12 -0.06 -0.18 -0.06 l0.54 0.6 l0.06 -0.24 l0 -0.18 z M203.16000000000003 16.020000000000003 l0.06 -0.24 l0 -0.3 l-0.3 0.54 l0.24 0 z"></path></g><defs id="SvgjsDefs2238"></defs><g id="SvgjsG2240" rel="mainfill" name="symbol" xmlns:name="symbol_mainfill" fill="#ffffff" transform="translate(-1.9714285714285715,-14.785714285714286) scale(0.9857142857142858)"><g xmlns="http://www.w3.org/2000/svg" transform="translate(0,-952.36218)"><path style="font-size:medium;font-style:normal;font-variant:normal;font-weight:normal;font-stretch:normal;text-indent:0;text-align:start;text-decoration:none;line-height:normal;letter-spacing:normal;word-spacing:normal;text-transform:none;direction:ltr;block-progression:tb;writing-mode:lr-tb;text-anchor:start;baseline-shift:baseline;opacity:1;color:;fill:;fill-opacity:1;stroke:none;stroke-width:8;marker:none;visibility:visible;display:inline;overflow:visible;enable-background:accumulate;font-family:Sans;-inkscape-font-specification:Sans" d="M 40 15 C 25.135691 15 13 27.13569 13 42 C 13 43.70344 13.195195 45.35278 13.5 46.96875 C 6.7197966 50.17402 2 57.038 2 65 C 2 75.9983 11.001667 85 22 85 L 78 85 C 88.998333 85 98 75.9983 98 65 C 98 57.4352 93.736506 50.85582 87.5 47.46875 C 87.831124 46.0292 88 44.53517 88 43 C 88 32.00168 78.998316 23 68 23 C 65.293726 23 62.793652 23.7057 60.4375 24.6875 C 55.4832 18.84382 48.233555 15 40 15 z M 40 23 C 46.748163 23 52.588626 26.46092 55.96875 31.71875 A 4.0004 4.0004 0 0 0 61.5 32.90625 C 63.388401 31.68543 65.592213 31 68 31 C 74.674796 31 80 36.3252 80 43 C 80 44.80275 79.614325 46.46609 78.90625 48 A 4.0004 4.0004 0 0 0 81.40625 53.53125 C 86.370935 55.00135 90 59.5268 90 65 C 90 71.6747 84.674779 77 78 77 L 22 77 C 15.325221 77 10 71.6747 10 65 C 10 59.3113 13.926217 54.61355 19.1875 53.34375 A 4.0004 4.0004 0 0 0 22.03125 48.15625 C 21.364839 46.21476 21 44.16018 21 42 C 21 31.45921 29.459211 23 40 23 z M 50 34 C 43.938342 34 39 39.03874 39 45.09375 C 39 46.515214 39.295077 47.902895 39.78125 49.15625 C 39.516253 49.418137 39.272751 49.686669 39.03125 49.96875 L 38 49.46875 L 38 48 A 4.0004 4.0004 0 0 0 33.9375 43.9375 A 4.0004 4.0004 0 0 0 30 48 L 30 52 A 4.0004 4.0004 0 0 0 32.28125 55.59375 L 36.03125 57.40625 C 36.021412 57.607292 36 57.796198 36 58 L 36 60.59375 L 32.28125 62.375 A 4.0004 4.0004 0 0 0 30 66 L 30 70 A 4.0004 4.0004 0 1 0 38 70 L 38 68.5 L 38.4375 68.28125 C 41.000743 71.770959 45.301733 74 50 74 C 54.698267 74 58.999257 71.770959 61.5625 68.28125 L 62 68.5 L 62 70 A 4.0004 4.0004 0 1 0 70 70 L 70 66 A 4.0004 4.0004 0 0 0 67.71875 62.375 L 64 60.59375 L 64 58 C 64 57.796198 63.978588 57.607292 63.96875 57.40625 L 67.71875 55.59375 A 4.0004 4.0004 0 0 0 70 52 L 70 48 A 4.0004 4.0004 0 0 0 65.9375 43.9375 A 4.0004 4.0004 0 0 0 62 48 L 62 49.46875 L 60.96875 49.96875 C 60.727249 49.686669 60.483747 49.418137 60.21875 49.15625 C 60.704923 47.902895 61 46.515214 61 45.09375 C 61 39.03874 56.061658 34 50 34 z M 50 42 C 51.670326 42 53 43.29548 53 45.09375 C 53 45.178529 52.975304 45.261468 52.96875 45.34375 C 52.004327 45.146836 51.013319 45 50 45 C 48.986681 45 47.995673 45.146836 47.03125 45.34375 C 47.024696 45.261468 47 45.178529 47 45.09375 C 47 43.29548 48.329672 42 50 42 z M 50 53 C 53.603201 53 56 55.3813 56 58 L 56 60.96875 C 56 63.58725 53.603153 66 50 66 C 46.396847 66 44 63.58725 44 60.96875 L 44 58 C 44 55.3813 46.396798 53 50 53 z " transform="translate(0,952.36218)"></path></g></g></svg>